<?xml version="1.0" encoding="utf-8"?>
<!-- Generator: Adobe Illustrator 16.0.0, SVG Export Plug-In . SVG Version: 6.00 Build 0)  -->
<!DOCTYPE svg PUBLIC "-//W3C//DTD SVG 1.1//EN" "http://www.w3.org/Graphics/SVG/1.1/DTD/svg11.dtd">
<svg version="1.1" xmlns="http://www.w3.org/2000/svg" xmlns:xlink="http://www.w3.org/1999/xlink" x="0px" y="0px"
	 width="297.334px" height="119.997px" viewBox="0 0 297.334 119.997" enable-background="new 0 0 297.334 119.997"
	 xml:space="preserve">
<g id="Layer_2" display="none">
</g>
<g id="Layer_1">
	<g>
		<text transform="matrix(1.0137 0 0 1 4.438 -92.0068)" font-family="'MyriadPro-Regular'" font-size="52.3714">re</text>
		<text transform="matrix(1 0 0 1 75.5977 -154.6353)" font-family="'MyriadPro-Regular'" font-size="36">think</text>
		<path fill="none" d="M26.729-150.437c0-2.475-7.78-4.477-17.394-4.477"/>
		<g>
			<g>
				<g>
					<path fill="#1C75BC" d="M-17.259-99.757c0,0,0.017-0.493,0.048-1.418c0.017-0.462,0.037-1.033,0.061-1.703
						c0.023-0.671,0.136-1.436,0.216-2.295c0.366-3.425,1.301-8.327,3.543-13.788c0.254-0.693,0.579-1.37,0.905-2.062
						c0.331-0.689,0.642-1.406,1.009-2.107c0.763-1.385,1.51-2.845,2.435-4.244c0.858-1.446,1.887-2.823,2.9-4.258
						c1.092-1.37,2.169-2.807,3.405-4.138c1.179-1.386,2.502-2.669,3.809-4.001c1.375-1.255,2.737-2.561,4.218-3.744
						c2.909-2.43,6.034-4.68,9.298-6.683c1.607-1.046,3.298-1.941,4.951-2.89c1.699-0.856,3.363-1.771,5.083-2.527
						c3.394-1.618,6.849-2.929,10.214-4.117c1.7-0.54,3.354-1.132,5.013-1.572c0.825-0.234,1.642-0.466,2.448-0.695
						c0.813-0.201,1.617-0.399,2.41-0.595c0.794-0.187,1.573-0.398,2.35-0.557c0.201-0.041,0.399-0.082,0.594-0.122
						c0.322-0.066,0.634-0.13,0.933-0.191c2.389-0.515,3.999-0.754,3.999-0.754s-1.007-1.504-2.014-3.009
						c-1.023-1.493-2.085-2.951-2.085-2.951c8.844,1.561,17.175,4.166,24.891,7.372c-7.714,3.306-14.836,7.226-21.135,11.809
						c0,0,0.306-1.755,0.662-3.495c0.375-1.734,0.75-3.468,0.75-3.468c0,0-1.525,0.225-3.784,0.714
						c-0.283,0.058-0.578,0.118-0.883,0.18c-0.184,0.038-0.371,0.076-0.562,0.115c-0.735,0.149-1.469,0.35-2.22,0.526
						c-0.749,0.185-1.508,0.372-2.276,0.561c-0.761,0.216-1.531,0.435-2.31,0.656c-1.566,0.413-3.122,0.974-4.724,1.48
						c-3.165,1.119-6.415,2.349-9.59,3.865c-1.613,0.707-3.163,1.564-4.752,2.361c-1.538,0.886-3.118,1.718-4.608,2.691
						c-3.035,1.861-5.923,3.943-8.595,6.176c-1.365,1.087-2.606,2.284-3.868,3.43c-1.187,1.216-2.398,2.383-3.463,3.641
						c-1.125,1.207-2.088,2.505-3.078,3.738c-0.906,1.291-1.837,2.526-2.598,3.817c-0.832,1.25-1.487,2.548-2.169,3.777
						c-0.326,0.622-0.597,1.256-0.891,1.865c-0.29,0.612-0.58,1.209-0.8,1.82c-1.973,4.811-2.783,9.08-3.103,12.066
						c-0.068,0.749-0.173,1.415-0.19,2c-0.02,0.584-0.037,1.082-0.051,1.485c-0.029,0.806-0.045,1.236-0.045,1.236H-17.259z"/>
				</g>
			</g>
		</g>
		<path fill="none" stroke="#1C75BC" stroke-width="6" stroke-miterlimit="10" d="M-14.084-105.004
			c0,23.187,19.953,41.95,44.609,41.95"/>
		<path fill="none" stroke="#1C75BC" stroke-width="6" stroke-miterlimit="10" d="M66.847-107.691
			c0,24.673-16.245,44.637-36.322,44.637"/>
		<path fill="none" stroke="#1C75BC" stroke-width="6" stroke-miterlimit="10" d="M66.757-107.691
			c0-24.428-34.716-44.194-77.619-44.194"/>
		<text transform="matrix(1 0 0 1 94.1099 -123.9941)" font-family="'SegoeScript'" font-size="36">Education</text>
	</g>
	
		<text transform="matrix(1.0137 0 0 1 20.396 81.2666)" fill="#FFFFFF" font-family="'Chocolate-Covered-Raindrops-Hollow'" font-size="65">re</text>
	
		<text transform="matrix(1 0 0 1 98.8047 40.6377)" fill="#FFFFFF" font-family="'Chocolate-Covered-Raindrops-Hollow'" font-size="60">think</text>
	<g>
		<g>
			<g>
				<path fill="#FFFFFF" d="M11.335,71.517c0,0-0.044-0.416-0.128-1.196c-0.036-0.396-0.081-0.882-0.134-1.454
					c0.001-0.576,0.002-1.237,0.003-1.979c0.091-2.949,0.683-7.321,2.864-12.081c1.038-2.4,2.511-4.826,4.237-7.273
					c1.759-2.423,3.872-4.773,6.219-7.027c2.364-2.235,5.006-4.306,7.798-6.239c2.809-1.909,5.797-3.618,8.854-5.175
					c6.154-3.025,12.613-5.341,18.802-6.842c3.094-0.754,6.107-1.366,8.985-1.787c0.719-0.107,1.427-0.213,2.125-0.316
					c0.198-0.024,0.392-0.048,0.583-0.071c0.325-0.036,0.638-0.071,0.939-0.105c1.203-0.128,2.206-0.235,2.908-0.31
					c0.704-0.05,1.107-0.078,1.107-0.078s-0.885-1.063-1.77-2.124c-0.921-1.127-1.843-2.253-1.843-2.253
					c1.079,0.29,2.146,0.579,3.206,0.896c1.058,0.298,2.106,0.596,3.141,0.861c2.079,0.615,4.109,1.089,6.114,1.596
					c1.001,0.236,1.995,0.457,2.981,0.639c0.987,0.203,1.968,0.393,2.943,0.526c1.95,0.257,3.882,0.507,5.811,0.462
					c-1.929,0.051-3.859,0.238-5.764,0.719c-0.953,0.222-1.899,0.499-2.84,0.79c-0.939,0.315-1.869,0.69-2.792,1.071
					c-0.923,0.38-1.835,0.801-2.735,1.276c-0.9,0.467-1.792,0.95-2.671,1.459c-1.75,1.076-3.464,2.18-5.107,3.44
					c0,0,0.437-1.408,0.919-2.722c0.478-1.322,1.003-2.521,1.003-2.521s-0.382,0.08-1.051,0.22
					c-0.665,0.156-1.615,0.379-2.754,0.646c-0.284,0.065-0.581,0.134-0.888,0.205c-0.181,0.043-0.364,0.087-0.551,0.132
					c-0.658,0.171-1.326,0.344-2.003,0.52c-2.711,0.68-5.534,1.511-8.428,2.412c-5.791,1.806-11.795,4.162-17.559,6.944
					c-2.858,1.435-5.665,2.956-8.327,4.608c-2.64,1.678-5.175,3.426-7.482,5.292c-2.288,1.884-4.41,3.815-6.25,5.813
					c-1.803,2.017-3.44,4.015-4.71,6.023c-2.641,3.97-4.028,7.8-4.796,10.554c-0.18,0.697-0.34,1.32-0.48,1.862
					c-0.1,0.553-0.185,1.023-0.254,1.404C11.415,71.105,11.335,71.517,11.335,71.517z"/>
			</g>
		</g>
	</g>
	<g>
		<g>
			<g>
				<path fill="#FFFFFF" d="M48.269,114.225c0,0-0.76,0.023-2.089,0.064c-0.332,0.009-0.7,0.019-1.101,0.028
					c-0.401,0.017-0.834,0.026-1.295-0.031c-0.923-0.083-1.964-0.177-3.1-0.279c-1.122-0.19-2.327-0.465-3.604-0.729
					c-1.257-0.338-2.549-0.81-3.899-1.245c-1.281-0.595-2.648-1.139-3.947-1.849c-0.639-0.374-1.282-0.752-1.928-1.131
					c-0.321-0.192-0.649-0.376-0.965-0.577l-0.908-0.661l-1.81-1.327c-0.606-0.437-1.124-0.97-1.683-1.446
					c-0.545-0.492-1.097-0.971-1.619-1.464c-0.489-0.526-0.971-1.046-1.446-1.557c-0.463-0.52-0.961-0.998-1.37-1.528
					c-0.409-0.53-0.809-1.049-1.197-1.554c-0.306-0.399-0.603-0.787-0.891-1.163c-0.207-0.254-0.354-0.534-0.523-0.784
					c-0.647-1.021-1.187-1.871-1.565-2.467c-0.196-0.294-0.321-0.541-0.406-0.709c-0.087-0.167-0.133-0.257-0.133-0.257
					s-1.067,1.397-1.984,2.837c-0.944,1.441-1.827,2.975-1.827,2.974c-0.608-2.271-0.879-4.599-1.151-6.819
					c-0.115-1.118-0.12-2.256-0.166-3.353l-0.041-1.636c0.004-0.545,0.05-1.098,0.078-1.638l0.221-3.188l0.499-3.115l0.267-1.51
					l0.388-1.495l0.791-2.894c3.814,7.015,8.987,12.531,14.762,15.652c0,0-1.596,0.409-3.253,0.729
					c-1.671,0.34-3.309,0.531-3.309,0.531s0.04,0.078,0.115,0.225c0.073,0.146,0.181,0.362,0.353,0.615
					c0.328,0.517,0.796,1.255,1.358,2.14c0.146,0.217,0.271,0.464,0.451,0.681c0.25,0.323,0.507,0.657,0.772,1.001
					c0.334,0.437,0.678,0.885,1.03,1.343c0.35,0.46,0.782,0.862,1.179,1.31c0.406,0.439,0.818,0.886,1.236,1.338
					c0.456,0.41,0.917,0.824,1.383,1.242c0.477,0.404,0.913,0.869,1.428,1.233l1.531,1.118l0.764,0.563
					c0.266,0.169,0.542,0.318,0.812,0.479c0.541,0.318,1.079,0.635,1.614,0.949c1.085,0.595,2.221,1.032,3.281,1.541
					c1.119,0.345,2.182,0.744,3.215,1.024c1.05,0.204,2.036,0.438,2.955,0.599c0.929,0.082,1.78,0.158,2.534,0.226
					c0.376,0.053,0.731,0.041,1.059,0.024c0.328-0.011,0.628-0.02,0.9-0.028c1.088-0.027,1.709-0.043,1.709-0.043L48.269,114.225z"
					/>
			</g>
		</g>
	</g>
	<path fill="none" stroke="#FFFFFF" stroke-width="6" stroke-miterlimit="10" d="M83.054,66.582
		c0,24.673-16.245,44.638-36.322,44.638"/>
	<g>
		<path fill="#FFFFFF" d="M79.967,67.715c0,0-0.005-0.381-0.015-1.096c-0.01-0.347,0-0.82-0.028-1.292
			c-0.044-0.428-0.094-0.92-0.15-1.471c-0.046-0.552-0.217-1.221-0.332-1.922c-0.128-0.708-0.387-1.45-0.591-2.263
			c-0.556-1.582-1.223-3.382-2.299-5.209c-1.033-1.843-2.339-3.772-3.969-5.645c-1.612-1.882-3.475-3.77-5.604-5.521
			c-2.119-1.757-4.42-3.477-6.916-5.008c-2.486-1.543-5.093-3.011-7.808-4.282c-2.699-1.3-5.476-2.462-8.263-3.472
			c-2.775-1.047-5.579-1.885-8.302-2.668c-1.368-0.371-2.72-0.713-4.045-1.044c-1.333-0.291-2.634-0.61-3.912-0.86
			c-2.553-0.518-4.985-0.926-7.239-1.259c-1.129-0.15-2.212-0.294-3.242-0.431c-1.033-0.108-2.014-0.211-2.935-0.307
			c-1.844-0.197-3.459-0.273-4.788-0.386c-2.663-0.124-4.185-0.194-4.185-0.194s1.524-0.023,4.192-0.063
			c1.333,0.03,2.958,0.007,4.816,0.091c0.93,0.04,1.92,0.082,2.963,0.126c1.042,0.074,2.139,0.151,3.283,0.232
			c2.286,0.195,4.76,0.455,7.369,0.818c1.306,0.174,2.638,0.415,4.007,0.627c1.361,0.252,2.752,0.515,4.164,0.805
			c2.812,0.624,5.719,1.303,8.621,2.196c2.913,0.857,5.835,1.873,8.706,3.044c2.883,1.141,5.688,2.497,8.394,3.953
			c2.714,1.445,5.267,3.113,7.656,4.858c2.396,1.738,4.559,3.664,6.477,5.644c1.934,1.966,3.56,4.06,4.891,6.123
			c1.371,2.042,2.32,4.133,3.101,6.008c0.32,0.968,0.678,1.857,0.896,2.719c0.208,0.872,0.445,1.628,0.568,2.398
			c0.12,0.771,0.228,1.458,0.321,2.057c0.064,0.56,0.079,0.968,0.111,1.333c0.053,0.713,0.082,1.093,0.082,1.093L79.967,67.715z"/>
	</g>
	<text transform="matrix(1 0 0 1 566.3335 665.9971)" font-family="'MyriadPro-Regular'" font-size="12">Olin College students engineer more than systems and software.  We are bringing together designers, mentors, and students of all ages for 2 days to re-envision the K-12 educational system.</text>
	
		<text transform="matrix(1 0 0 1 89.9834 96.9473)" fill="#FFFFFF" stroke="#FFFFFF" stroke-miterlimit="10" font-family="'Chocolate-Covered-Raindrops'" font-size="75">Education</text>
</g>
</svg>
