<?xml version="1.0" standalone="yes"?>

<svg version="1.1" viewBox="0.0 0.0 960.0 720.0" fill="none" stroke="none" stroke-linecap="square" stroke-miterlimit="10" xmlns="http://www.w3.org/2000/svg" xmlns:xlink="http://www.w3.org/1999/xlink"><clipPath id="p.0"><path d="m0 0l960.0 0l0 720.0l-960.0 0l0 -720.0z" clip-rule="nonzero"></path></clipPath><g clip-path="url(#p.0)"><path fill="#000000" fill-opacity="0.0" d="m0 0l960.0 0l0 720.0l-960.0 0z" fill-rule="nonzero"></path><path fill="#000000" fill-opacity="0.0" d="m219.44882 152.74016l521.1024 0l0 414.51965l-521.1024 0z" fill-rule="nonzero"></path><path fill="#000000" d="m430.19073 374.84952q22.640625 17.3125 22.640625 48.28125q-0.34375 10.984375 1.328125 19.640625q8.65625 2.671875 11.65625 11.5q3.0 8.828125 -2.671875 16.484375q-5.65625 7.65625 -16.3125 7.65625l-0.328125 0q-14.984375 0 -23.640625 -15.3125q-7.0 -14.65625 -7.0 -39.96875q-0.671875 -15.3125 -13.984375 -23.96875q-8.65625 -5.671875 -18.640625 -8.0l-39.296875 0l0 72.265625q0 7.65625 -5.5 12.984375q-5.5 5.328125 -13.15625 5.328125q-7.65625 0 -12.984375 -5.328125q-5.328125 -5.328125 -5.328125 -12.984375l0 -196.46875q0 -7.65625 5.328125 -12.98436q5.328125 -5.328125 12.984375 -5.328125l59.609375 0q29.640625 0 50.453125 20.98436q20.8125 20.96875 20.8125 52.28125q0 31.296875 -25.96875 52.9375zm-45.296875 -20.640625q14.328125 0 24.3125 -9.984375q9.984375 -10.0 9.984375 -24.15625q0 -14.15625 -9.984375 -24.3125q-9.984375 -10.15625 -24.3125 -10.15625l-40.953125 0l0 68.609375l40.953125 0zm153.39246 127.53125q-7.671875 0 -13.0 -5.328125q-5.328125 -5.328125 -5.328125 -12.984375l0 -196.46875q0 -7.65625 5.328125 -12.98436q5.328125 -5.328125 13.0 -5.328125l108.890625 0q7.3125 0 12.8125 5.328125q5.5 5.3281097 5.5 12.98436q0 7.65625 -5.5 13.15625q-5.5 5.484375 -12.8125 5.484375l-90.25 0l0 60.9375l77.59375 0q7.328125 0 12.8125 5.5q5.5 5.5 5.5 13.0q0 7.484375 -5.328125 12.984375q-5.328125 5.484375 -12.984375 5.484375l-77.59375 0l0 61.265625l90.25 0q7.3125 0 12.8125 5.5q5.5 5.5 5.5 13.0q0 7.484375 -5.5 12.984375q-5.5 5.484375 -12.8125 5.484375l-107.890625 0l-0.671875 -0.328125l-0.328125 0.328125z" fill-rule="nonzero"></path><path fill="#000000" fill-opacity="0.0" d="m228.8819 468.8819l502.2362 0l0 64.44092l-502.2362 0z" fill-rule="nonzero"></path><path fill="#000000" d="m104.44095 405.54593l62.220474 -108.8819l62.220474 108.8819z" fill-rule="nonzero"></path><path stroke="#000000" stroke-width="2.0" stroke-linejoin="round" stroke-linecap="butt" d="m104.44095 405.54593l62.220474 -108.8819l62.220474 108.8819z" fill-rule="nonzero"></path><path fill="#000000" d="m855.5591 305.55905l-62.22052 108.8819l-62.22046 -108.8819z" fill-rule="nonzero"></path><path stroke="#000000" stroke-width="2.0" stroke-linejoin="round" stroke-linecap="butt" d="m855.5591 305.55905l-62.22052 108.8819l-62.22046 -108.8819z" fill-rule="nonzero"></path><path fill="#000000" fill-opacity="0.0" d="m171.266 279.4295l0 0c36.429077 -156.9141 184.76558 -261.54364 344.80615 -243.20999c160.04053 18.333664 280.87274 153.79822 280.87274 314.88547l-316.9449 0z" fill-rule="nonzero"></path><path fill="#000000" fill-opacity="0.0" d="m171.266 279.4295l0 0c36.429077 -156.9141 184.76558 -261.54364 344.80615 -243.20999c160.04053 18.333664 280.87274 153.79822 280.87274 314.88547" fill-rule="nonzero"></path><path stroke="#000000" stroke-width="24.0" stroke-linejoin="round" stroke-linecap="butt" d="m171.266 279.4295l0 0c36.429077 -156.9141 184.76558 -261.54364 344.80615 -243.20999c160.04053 18.333664 280.87274 153.79822 280.87274 314.88547" fill-rule="nonzero"></path><path fill="#000000" fill-opacity="0.0" d="m788.734 431.6755l0 0c-36.429077 156.91403 -184.76556 261.5436 -344.80615 243.20999c-160.04056 -18.33368 -280.87274 -153.79822 -280.87274 -314.8855l316.9449 0z" fill-rule="nonzero"></path><path fill="#000000" fill-opacity="0.0" d="m788.734 431.6755l0 0c-36.429077 156.91403 -184.76556 261.5436 -344.80615 243.20999c-160.04056 -18.33368 -280.87274 -153.79822 -280.87274 -314.8855" fill-rule="nonzero"></path><path stroke="#000000" stroke-width="24.0" stroke-linejoin="round" stroke-linecap="butt" d="m788.734 431.6755l0 0c-36.429077 156.91403 -184.76556 261.5436 -344.80615 243.20999c-160.04056 -18.33368 -280.87274 -153.79822 -280.87274 -314.8855" fill-rule="nonzero"></path></g></svg>

